<mxfile host="Electron" modified="2024-10-20T00:11:06.248Z" agent="Mozilla/5.0 (Windows NT 10.0; Win64; x64) AppleWebKit/537.36 (KHTML, like Gecko) draw.io/22.0.3 Chrome/114.0.5735.289 Electron/25.8.4 Safari/537.36" etag="2Q3PiCG3mHaSrLA2f4aY" version="22.0.3" type="device" pages="3">
  <diagram name="Mobile main" id="1FCNKw8xSuN97yZ_pINk">
    <mxGraphModel dx="1098" dy="820" grid="1" gridSize="10" guides="1" tooltips="1" connect="1" arrows="1" fold="1" page="1" pageScale="1" pageWidth="300" pageHeight="500" math="0" shadow="0">
      <root>
        <mxCell id="0" />
        <mxCell id="1" parent="0" />
        <mxCell id="6o9bzkk64MMhdgOJG8cE-1" value="" style="rounded=0;whiteSpace=wrap;html=1;" vertex="1" parent="1">
          <mxGeometry width="300" height="500" as="geometry" />
        </mxCell>
        <mxCell id="fmoJhgtNPWcn2zxDnyIB-1" value="Location" style="text;html=1;strokeColor=none;fillColor=none;align=center;verticalAlign=middle;whiteSpace=wrap;rounded=0;" vertex="1" parent="1">
          <mxGeometry x="30" y="10" width="120" height="30" as="geometry" />
        </mxCell>
        <mxCell id="fmoJhgtNPWcn2zxDnyIB-2" value="" style="line;strokeWidth=4;html=1;perimeter=backbonePerimeter;points=[];outlineConnect=0;" vertex="1" parent="1">
          <mxGeometry x="240" y="10" width="40" height="10" as="geometry" />
        </mxCell>
        <mxCell id="fmoJhgtNPWcn2zxDnyIB-5" value="" style="line;strokeWidth=4;html=1;perimeter=backbonePerimeter;points=[];outlineConnect=0;" vertex="1" parent="1">
          <mxGeometry x="240" y="20" width="40" height="10" as="geometry" />
        </mxCell>
        <mxCell id="fmoJhgtNPWcn2zxDnyIB-6" value="" style="line;strokeWidth=4;html=1;perimeter=backbonePerimeter;points=[];outlineConnect=0;" vertex="1" parent="1">
          <mxGeometry x="240" y="30" width="40" height="10" as="geometry" />
        </mxCell>
        <mxCell id="fmoJhgtNPWcn2zxDnyIB-7" value="" style="verticalLabelPosition=bottom;shadow=0;dashed=0;align=center;html=1;verticalAlign=top;strokeWidth=1;shape=mxgraph.mockup.graphics.simpleIcon;strokeColor=#999999;" vertex="1" parent="1">
          <mxGeometry x="130" y="50" width="150" height="150" as="geometry" />
        </mxCell>
        <mxCell id="fmoJhgtNPWcn2zxDnyIB-8" value="Animation" style="text;html=1;strokeColor=none;fillColor=none;align=center;verticalAlign=middle;whiteSpace=wrap;rounded=0;" vertex="1" parent="1">
          <mxGeometry x="175" y="110" width="60" height="30" as="geometry" />
        </mxCell>
        <mxCell id="fmoJhgtNPWcn2zxDnyIB-9" value="&lt;h1&gt;&lt;/h1&gt;&lt;font style=&quot;font-size: 37px;&quot;&gt;&lt;b style=&quot;&quot;&gt;11&amp;nbsp;&lt;/b&gt;°C&lt;br&gt;&lt;br&gt;&lt;/font&gt;" style="text;html=1;strokeColor=none;fillColor=none;spacing=5;spacingTop=-20;whiteSpace=wrap;overflow=hidden;rounded=0;" vertex="1" parent="1">
          <mxGeometry x="20" y="50" width="100" height="50" as="geometry" />
        </mxCell>
        <mxCell id="fmoJhgtNPWcn2zxDnyIB-10" value="Cloudy&lt;br&gt;&lt;br&gt;&lt;div style=&quot;&quot;&gt;&lt;br&gt;&lt;br&gt;&lt;/div&gt;Feels like 11°C" style="text;html=1;strokeColor=none;fillColor=none;align=left;verticalAlign=middle;whiteSpace=wrap;rounded=0;" vertex="1" parent="1">
          <mxGeometry x="20" y="110" width="100" height="90" as="geometry" />
        </mxCell>
        <mxCell id="fmoJhgtNPWcn2zxDnyIB-11" value="" style="rounded=1;whiteSpace=wrap;html=1;" vertex="1" parent="1">
          <mxGeometry x="20" y="230" width="260" height="80" as="geometry" />
        </mxCell>
        <mxCell id="fmoJhgtNPWcn2zxDnyIB-12" value="Weather update of the day" style="text;html=1;strokeColor=none;fillColor=none;align=center;verticalAlign=middle;whiteSpace=wrap;rounded=0;" vertex="1" parent="1">
          <mxGeometry x="40" y="240" width="220" height="60" as="geometry" />
        </mxCell>
        <mxCell id="fmoJhgtNPWcn2zxDnyIB-13" value="" style="rounded=1;whiteSpace=wrap;html=1;" vertex="1" parent="1">
          <mxGeometry x="20" y="330" width="260" height="80" as="geometry" />
        </mxCell>
        <mxCell id="fmoJhgtNPWcn2zxDnyIB-14" value="Warnings" style="text;html=1;strokeColor=none;fillColor=none;align=center;verticalAlign=middle;whiteSpace=wrap;rounded=0;" vertex="1" parent="1">
          <mxGeometry x="40" y="340" width="220" height="60" as="geometry" />
        </mxCell>
        <mxCell id="fmoJhgtNPWcn2zxDnyIB-15" value="Nest page" style="shape=offPageConnector;whiteSpace=wrap;html=1;" vertex="1" parent="1">
          <mxGeometry x="110" y="440" width="80" height="40" as="geometry" />
        </mxCell>
      </root>
    </mxGraphModel>
  </diagram>
  <diagram id="CFm7tG9Z6qqbLeaUUl3R" name="Page-2">
    <mxGraphModel dx="1098" dy="820" grid="1" gridSize="10" guides="1" tooltips="1" connect="1" arrows="1" fold="1" page="1" pageScale="1" pageWidth="300" pageHeight="500" math="0" shadow="0">
      <root>
        <mxCell id="0" />
        <mxCell id="1" parent="0" />
        <mxCell id="RDb1cfF4Ngzhj-rvOsT8-1" value="" style="rounded=0;whiteSpace=wrap;html=1;" vertex="1" parent="1">
          <mxGeometry width="300" height="500" as="geometry" />
        </mxCell>
        <mxCell id="nRLKaarY42VqBLMRrI-z-1" value="Location" style="text;html=1;strokeColor=none;fillColor=none;align=center;verticalAlign=middle;whiteSpace=wrap;rounded=0;" vertex="1" parent="1">
          <mxGeometry x="30" y="10" width="120" height="30" as="geometry" />
        </mxCell>
        <mxCell id="nRLKaarY42VqBLMRrI-z-2" value="" style="line;strokeWidth=4;html=1;perimeter=backbonePerimeter;points=[];outlineConnect=0;" vertex="1" parent="1">
          <mxGeometry x="240" y="10" width="40" height="10" as="geometry" />
        </mxCell>
        <mxCell id="nRLKaarY42VqBLMRrI-z-3" value="" style="line;strokeWidth=4;html=1;perimeter=backbonePerimeter;points=[];outlineConnect=0;" vertex="1" parent="1">
          <mxGeometry x="240" y="20" width="40" height="10" as="geometry" />
        </mxCell>
        <mxCell id="nRLKaarY42VqBLMRrI-z-4" value="" style="line;strokeWidth=4;html=1;perimeter=backbonePerimeter;points=[];outlineConnect=0;" vertex="1" parent="1">
          <mxGeometry x="240" y="30" width="40" height="10" as="geometry" />
        </mxCell>
        <mxCell id="iyRcntqC5wuA3fGvqw-U-1" value="Week Forecast" style="rounded=1;whiteSpace=wrap;html=1;" vertex="1" parent="1">
          <mxGeometry x="20" y="50" width="260" height="280" as="geometry" />
        </mxCell>
        <mxCell id="iyRcntqC5wuA3fGvqw-U-7" value="Humidity" style="rounded=1;whiteSpace=wrap;html=1;" vertex="1" parent="1">
          <mxGeometry x="20" y="350" width="120" height="60" as="geometry" />
        </mxCell>
        <mxCell id="iyRcntqC5wuA3fGvqw-U-8" value="UV index" style="rounded=1;whiteSpace=wrap;html=1;" vertex="1" parent="1">
          <mxGeometry x="20" y="430" width="120" height="60" as="geometry" />
        </mxCell>
        <mxCell id="iyRcntqC5wuA3fGvqw-U-9" value="Dew point/Pollen" style="rounded=1;whiteSpace=wrap;html=1;" vertex="1" parent="1">
          <mxGeometry x="160" y="430" width="120" height="60" as="geometry" />
        </mxCell>
        <mxCell id="iyRcntqC5wuA3fGvqw-U-10" value="Wind" style="rounded=1;whiteSpace=wrap;html=1;" vertex="1" parent="1">
          <mxGeometry x="160" y="350" width="120" height="60" as="geometry" />
        </mxCell>
      </root>
    </mxGraphModel>
  </diagram>
  <diagram id="_rmHb-65UOTShK-TQPKB" name="Settings page">
    <mxGraphModel dx="1098" dy="820" grid="1" gridSize="10" guides="1" tooltips="1" connect="1" arrows="1" fold="1" page="1" pageScale="1" pageWidth="300" pageHeight="500" math="0" shadow="0">
      <root>
        <mxCell id="0" />
        <mxCell id="1" parent="0" />
        <mxCell id="3qVT2Ipe0yR-Vf9BhJ4h-1" value="" style="rounded=0;whiteSpace=wrap;html=1;" vertex="1" parent="1">
          <mxGeometry width="300" height="500" as="geometry" />
        </mxCell>
        <mxCell id="yXzIrpIp59JQ65LxYgEW-1" value="" style="line;strokeWidth=4;html=1;perimeter=backbonePerimeter;points=[];outlineConnect=0;" vertex="1" parent="1">
          <mxGeometry x="240" y="10" width="40" height="10" as="geometry" />
        </mxCell>
        <mxCell id="yXzIrpIp59JQ65LxYgEW-2" value="" style="line;strokeWidth=4;html=1;perimeter=backbonePerimeter;points=[];outlineConnect=0;" vertex="1" parent="1">
          <mxGeometry x="240" y="20" width="40" height="10" as="geometry" />
        </mxCell>
        <mxCell id="yXzIrpIp59JQ65LxYgEW-3" value="" style="line;strokeWidth=4;html=1;perimeter=backbonePerimeter;points=[];outlineConnect=0;" vertex="1" parent="1">
          <mxGeometry x="240" y="30" width="40" height="10" as="geometry" />
        </mxCell>
        <mxCell id="yXzIrpIp59JQ65LxYgEW-4" value="Locations" style="rounded=1;whiteSpace=wrap;html=1;" vertex="1" parent="1">
          <mxGeometry x="20" y="50" width="260" height="200" as="geometry" />
        </mxCell>
        <mxCell id="yXzIrpIp59JQ65LxYgEW-5" value="Add/Remove Location" style="rounded=1;whiteSpace=wrap;html=1;" vertex="1" parent="1">
          <mxGeometry x="20" y="280" width="260" height="60" as="geometry" />
        </mxCell>
        <mxCell id="yXzIrpIp59JQ65LxYgEW-6" value="Units" style="rounded=1;whiteSpace=wrap;html=1;" vertex="1" parent="1">
          <mxGeometry x="20" y="370" width="120" height="60" as="geometry" />
        </mxCell>
        <mxCell id="yXzIrpIp59JQ65LxYgEW-7" value="Theme" style="rounded=1;whiteSpace=wrap;html=1;" vertex="1" parent="1">
          <mxGeometry x="160" y="370" width="120" height="60" as="geometry" />
        </mxCell>
      </root>
    </mxGraphModel>
  </diagram>
</mxfile>
